<svg xmlns="http://www.w3.org/2000/svg" width="1600" height="900" viewBox="0 0 1600 900">
  <defs>
    <linearGradient id="g" x1="0" y1="0" x2="1" y2="1">
      <stop offset="0%" stop-color="#201223"/>
      <stop offset="45%" stop-color="#54313b"/>
      <stop offset="100%" stop-color="#b8794f"/>
    </linearGradient>
    <radialGradient id="r" cx="75%" cy="25%" r="50%">
      <stop offset="0%" stop-color="#ffd7a8" stop-opacity=".45"/>
      <stop offset="100%" stop-color="#ffd7a8" stop-opacity="0"/>
    </radialGradient>
  </defs>
  <rect width="1600" height="900" fill="url(#g)"/>
  <rect width="1600" height="900" fill="url(#r)"/>
  <g opacity=".14" fill="none" stroke="#fff" stroke-width="2">
    <path d="M50 170 C250 40, 390 240, 570 120 S900 50, 1100 150 S1400 280, 1550 100"/>
    <path d="M0 520 C210 420, 430 620, 680 490 S1050 380, 1240 510 S1460 680, 1600 560"/>
    <path d="M150 790 C340 640, 600 830, 820 700 S1210 650, 1520 820"/>
  </g>
  <g opacity=".23" fill="#fff">
    <circle cx="240" cy="210" r="4"/>
    <circle cx="430" cy="360" r="3"/>
    <circle cx="880" cy="180" r="5"/>
    <circle cx="1130" cy="360" r="3"/>
    <circle cx="1370" cy="230" r="5"/>
    <circle cx="1280" cy="700" r="4"/>
    <circle cx="620" cy="720" r="3"/>
  </g>
  <g opacity=".12" fill="#fff" font-family="Georgia" font-size="90">
    <text x="110" y="430">Aa</text>
    <text x="1210" y="560">言</text>
    <text x="720" y="335">文化</text>
    <text x="980" y="790">voice</text>
  </g>
</svg>